<?xml version="1.0" standalone="no"?>
<!DOCTYPE svg PUBLIC "-//W3C//DTD SVG 20010904//EN"
 "http://www.w3.org/TR/2001/REC-SVG-20010904/DTD/svg10.dtd">
<svg version="1.0" xmlns="http://www.w3.org/2000/svg"
 width="980.000000pt" height="980.000000pt" viewBox="0 0 980.000000 980.000000"
 preserveAspectRatio="xMidYMid meet">

<g transform="translate(0.000000,980.000000) scale(0.100000,-0.100000)"
fill="#fff" stroke="none">
<path d="M588 9790 c-250 -43 -474 -233 -555 -474 l-28 -81 0 -4335 0 -4335
28 -82 c72 -213 252 -384 477 -455 l75 -23 4315 0 4315 0 75 23 c225 71 405
242 477 455 l28 82 0 4335 0 4335 -28 82 c-71 209 -247 379 -472 455 l-70 23
-4295 1 c-2362 1 -4316 -2 -4342 -6z m1873 -1655 c327 -69 552 -307 600 -635
24 -165 -3 -329 -79 -475 -48 -92 -181 -228 -275 -280 -252 -139 -639 -152
-893 -30 -188 91 -336 265 -388 460 -40 145 -29 356 24 497 51 136 182 287
320 368 83 50 224 97 325 109 97 12 276 5 366 -14z m4277 -2015 c432 -30 775
-176 1052 -450 245 -242 392 -535 470 -936 49 -253 50 -286 50 -1761 l0 -1383
-740 0 -740 0 0 1193 c0 1226 -4 1392 -40 1568 -66 322 -233 522 -492 588
-273 69 -557 6 -747 -166 -101 -91 -227 -301 -262 -438 -10 -39 -14 -340 -16
-1398 l-4 -1347 -737 2 -737 3 0 2212 0 2213 737 0 738 0 2 -311 3 -310 55 78
c82 117 287 317 399 392 228 151 459 230 731 250 58 5 112 9 120 9 8 1 80 -3
158 -8z m-3763 -2315 l0 -2210 -742 -3 -743 -2 0 2215 0 2215 743 -2 742 -3 0
-2210z"/>
</g>
</svg>
