<?xml version="1.0" standalone="no"?>
<!DOCTYPE svg PUBLIC "-//W3C//DTD SVG 20010904//EN"
 "http://www.w3.org/TR/2001/REC-SVG-20010904/DTD/svg10.dtd">
<svg version="1.0" xmlns="http://www.w3.org/2000/svg"
 width="192.000000pt" height="192.000000pt" viewBox="0 0 192.000000 192.000000"
 preserveAspectRatio="xMidYMid meet">

<g transform="translate(0.000000,192.000000) scale(0.100000,-0.100000)"
fill="#000000" stroke="none">
<path d="M1279 1662 c-57 -37 -139 -160 -139 -207 0 -11 -9 -11 -52 1 -201 55
-410 6 -553 -128 -57 -53 -65 -65 -65 -97 0 -49 8 -56 36 -30 46 43 122 37
314 -23 244 -77 564 -269 615 -369 8 -15 15 -39 15 -54 0 -31 11 -32 47 -1 28
24 28 25 27 138 0 123 -10 171 -56 263 -37 77 -96 146 -170 200 l-57 43 25 50
c19 39 35 56 68 71 23 12 52 21 64 21 48 0 34 72 -23 116 -38 28 -61 30 -96 6z" fill="#8C7CF0" />
<path d="M547 1196 c-52 -19 -62 -29 -96 -97 -47 -95 -65 -192 -58 -328 8
-176 45 -288 131 -399 81 -106 163 -141 300 -127 216 21 429 155 555 349 37
56 45 77 45 115 0 121 -125 231 -414 365 -242 113 -382 150 -463 122z" fill="#321ac4" />
</g>
</svg>
