<?xml version="1.0" standalone="no"?>
<!DOCTYPE svg PUBLIC "-//W3C//DTD SVG 20010904//EN"
 "http://www.w3.org/TR/2001/REC-SVG-20010904/DTD/svg10.dtd">
<svg version="1.0" xmlns="http://www.w3.org/2000/svg"
 width="595.000000pt" height="595.000000pt" viewBox="0 0 595.000000 595.000000"
 preserveAspectRatio="xMidYMid meet">

<g transform="translate(0.000000,595.000000) scale(0.100000,-0.100000)"
fill="#fff" stroke="none">
<path d="M0 2975 l0 -2975 2975 0 2975 0 0 2975 0 2975 -2975 0 -2975 0 0
-2975z m3405 2481 c415 -62 814 -229 1140 -476 743 -564 1101 -1475 944 -2401
-158 -934 -874 -1712 -1800 -1958 -184 -49 -344 -72 -554 -78 -418 -13 -816
71 -1163 246 l-78 39 -524 -144 c-319 -88 -543 -144 -570 -144 -62 0 -140 40
-174 88 -30 45 -46 117 -36 169 3 21 90 223 193 449 103 226 187 416 187 423
0 6 -27 58 -60 114 -156 268 -262 583 -305 912 -21 160 -21 472 0 630 75 566
327 1064 737 1460 408 394 908 626 1478 685 119 12 465 4 585 -14z"/>
<path d="M2850 5029 c-766 -79 -1443 -608 -1701 -1331 -82 -228 -109 -377
-116 -624 -13 -455 88 -810 338 -1192 71 -109 88 -158 75 -227 -4 -20 -59
-150 -123 -291 -63 -140 -113 -257 -111 -259 2 -3 151 36 331 85 230 63 344
90 383 90 49 0 74 -9 217 -80 307 -151 592 -220 912 -220 634 0 1242 304 1620
811 275 368 407 764 407 1219 0 273 -43 501 -143 750 -335 839 -1194 1360
-2089 1269z m-496 -901 c71 -21 136 -97 205 -240 141 -292 145 -391 26 -543
-79 -100 -95 -127 -95 -156 0 -33 114 -206 200 -302 175 -196 411 -363 622
-442 70 -26 95 -12 159 88 112 174 154 206 262 207 74 0 155 -28 270 -92 199
-112 266 -170 288 -250 40 -148 -97 -362 -293 -457 -104 -51 -190 -71 -298
-71 -106 0 -180 16 -361 76 -340 113 -687 335 -936 597 -239 253 -450 584
-519 812 -23 77 -27 108 -27 215 0 108 4 136 26 205 84 258 284 408 471 353z"/>
</g>
</svg>
